<svg width="78" height="76" viewBox="0 0 78 76" fill="none" xmlns="http://www.w3.org/2000/svg">
<path d="M0.105229 73.6622C0.10457 73.6629 0.103483 73.6622 0.10383 73.6613L29.2901 0.944953C29.519 0.375634 30.0707 0 30.687 0H47.0388C47.6551 0 48.2068 0.375634 48.4357 0.944953L77.4181 73.6652C77.8114 74.6512 77.0836 75.7253 76.0213 75.7253H56.142C55.5082 75.7253 54.9447 75.3321 54.7276 74.7393L42.9714 42.6226C42.1732 40.3864 41.4924 38.4789 40.9172 36.8884C40.342 35.3036 39.8372 33.807 39.4029 32.3984C38.9744 30.9897 38.5401 29.4755 38.1058 27.8555C37.7947 26.6934 37.4836 25.3728 37.1784 23.8997C36.9847 22.9606 37.6891 22.0743 38.6516 22.0743C39.6083 22.0743 40.3185 22.9664 40.1248 23.8997C39.8137 25.3787 39.5027 26.6993 39.1975 27.8555C38.7631 29.4813 38.3112 30.9956 37.8475 32.3984C37.378 33.807 36.838 35.3036 36.2276 36.8884C35.6113 38.4731 34.9129 40.3864 34.1147 42.6226L22.3585 74.7393C22.1414 75.3321 21.5779 75.7253 20.9441 75.7253H1.50502C0.444067 75.7253 -0.283195 74.654 0.10662 73.6632C0.10696 73.6623 0.105886 73.6616 0.105229 73.6622ZM15.3183 62.3874C15.3166 62.3856 15.3161 62.3829 15.317 62.3806L20.8443 49.4897C21.079 48.938 21.6249 48.5799 22.2294 48.5799H55.3673C55.9894 48.5799 56.547 48.9614 56.7701 49.5425L61.7707 62.4373C62.1522 63.4233 61.4244 64.4856 60.3679 64.4856H16.7064C15.6279 64.4856 14.9006 63.3851 15.3196 62.3942C15.3206 62.3919 15.3201 62.3892 15.3183 62.3874Z" fill="#0D308C"/>
</svg>
