<svg width="69" height="76" viewBox="0 0 69 76" fill="none" xmlns="http://www.w3.org/2000/svg">
<path d="M0 74.2228V1.50253C0 0.669095 0.674973 0 1.50254 0H21.863C22.6965 0 23.3656 0.674964 23.3656 1.50253V74.2228C23.3656 75.0562 22.6906 75.7253 21.863 75.7253H1.50254C0.669104 75.7253 0 75.0503 0 74.2228ZM8.76869 46.6313L8.8626 29.2994C8.8626 28.4718 9.53756 27.8027 10.3651 27.8027H56.8028C57.6362 27.8027 58.3053 28.4777 58.3053 29.3053V46.6372C58.3053 47.4706 57.6304 48.1397 56.8028 48.1397H10.2712C9.43778 48.1397 8.76282 47.4589 8.76869 46.6255V46.6313ZM45.1112 74.2228V1.50253C45.1112 0.669095 45.7862 0 46.6137 0H66.9742C67.8077 0 68.4768 0.674964 68.4768 1.50253V74.2228C68.4768 75.0562 67.8018 75.7253 66.9742 75.7253H46.6137C45.7803 75.7253 45.1112 75.0503 45.1112 74.2228Z" fill="#0D308C"/>
</svg>
