<svg width="85" height="116" viewBox="0 0 85 116" fill="none" xmlns="http://www.w3.org/2000/svg">
<path d="M40.7856 91.3082C34.8693 91.3082 29.4285 90.3339 24.4514 88.3853C19.4742 86.4367 15.1486 83.6957 11.4686 80.1624C7.78852 76.6292 4.95954 72.4444 2.97572 67.614C0.991911 62.7835 0 57.5188 0 51.8198C0 46.1207 0.991911 40.7679 2.97572 35.9727C4.95954 31.1775 7.78852 27.0104 11.4686 23.4771C15.1427 19.9438 19.4742 17.2028 24.4514 15.2542C29.4285 13.3056 34.8693 12.3313 40.7856 12.3313C42.1531 12.3313 43.7084 12.4428 45.434 12.66C47.1654 12.8772 48.9321 13.1648 50.734 13.5228C52.1015 13.8104 53.4573 14.1156 54.7896 14.4443C56.1219 14.7671 57.513 14.9314 58.9568 14.9314C60.8291 14.9314 62.4197 14.3738 63.7168 13.2528C65.0139 12.1376 66.0058 10.4766 66.6925 8.27566C67.2736 6.40924 67.6081 4.14957 67.6961 1.47905C67.7255 0.657352 68.377 0 69.1987 0H82.6276C83.4727 0 84.1653 0.692571 84.1418 1.53775C84.0714 4.04392 83.8249 6.52663 83.4082 8.97998C82.9034 11.9381 81.9819 14.6027 80.6496 16.9857C79.3114 19.3627 77.4039 21.2585 74.9153 22.6612C73.1705 23.6489 71.0448 24.2903 68.5382 24.5855C67.5726 24.6992 67.2131 23.4972 68.0424 22.9899C68.6176 22.6378 69.3747 22.7023 69.8619 23.1719C72.1627 25.3611 74.1406 27.8027 75.7781 30.5084C77.6152 33.537 79.0414 36.8355 80.051 40.4099C81.0605 43.9784 81.5652 47.7817 81.5652 51.8198C81.5652 57.5188 80.5733 62.7835 78.5895 67.614C76.6057 72.4444 73.7767 76.6292 70.0967 80.1624C66.4166 83.6957 62.1086 86.4367 57.1667 88.3853C52.2247 90.3339 46.7605 91.3082 40.7797 91.3082H40.7856ZM40.7856 69.6741C43.233 69.6741 45.4927 69.2397 47.5469 68.377C49.6012 67.5142 51.4031 66.264 52.9584 64.6441C54.5079 63.0183 55.6994 61.1284 56.5269 58.9627C57.3545 56.7969 57.7712 54.4198 57.7712 51.8256C57.7712 49.2314 57.3545 46.8485 56.5269 44.6827C55.6994 42.517 54.5079 40.6271 52.9584 39.0071C51.4031 37.3814 49.6071 36.1371 47.5469 35.2743C45.4927 34.4115 43.233 33.9772 40.7856 33.9772C38.3381 33.9772 36.0784 34.4115 34.0241 35.2743C31.9699 36.1429 30.1622 37.3872 28.6127 39.0071C27.0573 40.6271 25.8717 42.5228 25.0442 44.6827C24.2166 46.8485 23.7999 49.2255 23.7999 51.8256C23.7999 54.4257 24.2166 56.8028 25.0442 58.9627C25.8717 61.1284 27.0632 63.0183 28.6127 64.6441C30.1622 66.264 31.964 67.5142 34.0241 68.377C36.0784 69.2456 38.3322 69.6741 40.7856 69.6741ZM40.7856 115.865C36.7475 115.865 33.5898 114.926 31.3184 113.054C29.047 111.176 27.9084 108.511 27.9084 105.048C27.9084 101.873 29.0588 99.2787 31.3712 97.2596C33.6779 95.2406 36.8121 94.2311 40.7856 94.2311C44.7591 94.2311 47.9813 95.1702 50.2527 97.0425C52.5241 98.9206 53.6627 101.585 53.6627 105.048C53.6627 108.223 52.5065 110.818 50.1998 112.837C47.8932 114.856 44.7532 115.865 40.7856 115.865Z" fill="#0D308C"/>
</svg>
