<svg width="71" height="76" viewBox="0 0 71 76" fill="none" xmlns="http://www.w3.org/2000/svg">
<path d="M23.3685 74.2169C23.3669 74.2169 23.3656 74.2156 23.3656 74.214V21.4052C23.3656 20.5718 22.6906 19.9027 21.863 19.9027H1.50253C0.669096 19.9027 0 19.2277 0 18.4002V1.50253C0 0.669095 0.674966 0 1.50253 0H69.2398C70.0732 0 70.7423 0.674964 70.7423 1.50253V18.4002C70.7423 19.2336 70.0673 19.9027 69.2398 19.9027H48.2336C47.4002 19.9027 46.7311 20.5777 46.7311 21.4052V74.2169C46.7311 75.0503 46.0561 75.7194 45.2286 75.7194H24.874C24.0415 75.7194 23.373 75.0461 23.3714 74.2199C23.3714 74.2182 23.3701 74.2169 23.3685 74.2169Z" fill="#0D308C"/>
</svg>
