<svg width="68" height="77" viewBox="0 0 68 77" fill="none" xmlns="http://www.w3.org/2000/svg">
<path d="M33.7542 76.3709C27.1923 76.3709 21.37 75.0914 16.2814 72.5324C11.1986 69.9734 7.21334 66.4577 4.32566 61.9853C1.44385 57.513 0 52.395 0 46.6255V1.50253C0 0.669097 0.674964 0 1.50253 0H22.0743C22.9078 0 23.5769 0.674967 23.5769 1.50253V45.6512C23.5769 47.7465 24.0112 49.6012 24.874 51.2211C25.7367 52.841 26.9458 54.1264 28.4953 55.0596C30.0448 55.9987 31.7938 56.4682 33.7424 56.4682C35.8319 56.4682 37.6748 55.9987 39.2595 55.0596C40.8442 54.1205 42.1061 52.841 43.0452 51.2211C43.9784 49.5953 44.4538 47.7406 44.4538 45.6512V1.50253C44.4538 0.669097 45.1288 0 45.9564 0H65.9882C66.8216 0 67.4907 0.674967 67.4907 1.50253V46.6255C67.4907 52.395 66.0469 57.513 63.1651 61.9853C60.2833 66.4577 56.298 69.9734 51.2152 72.5324C46.1325 75.0973 40.3043 76.3709 33.7424 76.3709H33.7542Z" fill="#0D308C"/>
</svg>
