<svg width="116" height="97" viewBox="0 0 116 97" fill="none" xmlns="http://www.w3.org/2000/svg">
<path d="M77.4668 69.1414C77.4677 69.1431 77.4654 69.1446 77.4641 69.1432L71.8992 62.9355C71.8552 62.886 71.8002 62.8475 71.7506 62.798L30.4225 17.7013C23.8976 10.4227 12.9824 10.1036 5.65429 16.5459C-1.32725 22.6857 -2.00395 34.4757 4.52096 41.7543L45.9866 86.9996L47.3455 88.5125L51.4332 93.0678C52.7371 94.5258 54.9597 94.8669 56.5002 93.6675C58.2387 92.3141 58.4312 89.7779 56.9898 88.1659L56.4177 87.5277L53.4138 84.1717C53.0617 83.7811 53.0892 83.1704 53.4743 82.8128C53.8594 82.4552 54.4591 82.4827 54.8112 82.8734L57.7931 86.2018L58.2552 86.719C59.5591 88.1769 61.7817 88.518 63.3222 87.3187C65.0607 85.9653 65.2532 83.429 63.8118 81.817L63.1351 81.0633L60.2358 77.8284C59.8837 77.4378 59.9112 76.8271 60.2963 76.4695C60.6814 76.1119 61.2811 76.1394 61.6332 76.53L64.5105 79.7374L65.0827 80.3756C66.3866 81.8336 68.6092 82.1747 70.1497 80.9753C71.8882 79.6219 72.0807 77.0857 70.6393 75.4737L69.8526 74.5989L67.0633 71.485C66.7112 71.0944 66.7387 70.4837 67.1238 70.1261C67.5089 69.7685 68.1086 69.796 68.4607 70.1866L71.228 73.273L71.9047 74.0323C73.2086 75.4902 75.4312 75.8313 76.9717 74.6319C78.7069 73.2811 78.902 70.752 77.4696 69.1396C77.4683 69.1382 77.466 69.1396 77.4668 69.1414Z" fill="#FFC20E"/>
<path d="M66.3353 69.4938C66.3363 69.4938 66.3368 69.495 66.3361 69.4957C65.9584 69.881 65.9535 70.5067 66.327 70.8912L68.608 73.2436C68.994 73.6417 69.6332 73.6403 70.0175 73.2405C70.3833 72.8599 70.3817 72.258 70.0139 71.8793L67.7079 69.5048C67.3289 69.1149 66.7197 69.1142 66.3345 69.4918C66.3337 69.4925 66.3342 69.4938 66.3353 69.4938Z" fill="#0D308C"/>
<path d="M53.15 82.615C52.7594 82.9891 52.7374 83.6163 53.106 84.0124L55.553 86.6654C55.9293 87.0735 56.5692 87.0877 56.9633 86.6967C57.3376 86.3254 57.351 85.7246 56.9937 85.337L54.5254 82.659C54.1568 82.2629 53.5406 82.2409 53.15 82.615Z" fill="#0D308C"/>
<path d="M59.7087 75.9832C59.7087 75.985 59.708 75.9866 59.7067 75.9879C59.3235 76.3677 59.3132 76.9934 59.6812 77.3834L62.0474 79.8813C62.429 80.2841 63.0685 80.2902 63.4577 79.8948C63.8278 79.5187 63.8339 78.9172 63.4715 78.5337L61.0841 76.008C60.7106 75.6125 60.0959 75.6009 59.7107 75.9785C59.7094 75.9797 59.7087 75.9814 59.7087 75.9832Z" fill="#0D308C"/>
<path d="M29.2693 70.2475C31.2521 68.104 31.3497 64.9697 29.4873 63.2468C27.6248 61.524 24.5076 61.865 22.5248 64.0085C20.542 66.152 20.4444 69.2863 22.3068 71.0091C24.1693 72.732 27.2865 72.391 29.2693 70.2475Z" fill="#0D308C"/>
<path d="M36.1873 77.643C38.1701 75.4995 38.2677 72.3652 36.4052 70.6423C34.5428 68.9195 31.4256 69.2605 29.4427 71.404C27.4599 73.5475 27.3624 76.6818 29.2248 78.4046C31.0873 80.1275 34.2045 79.7865 36.1873 77.643Z" fill="#0D308C"/>
<path d="M43.1092 85.0292C45.092 82.8857 45.1896 79.7514 43.3271 78.0286C41.4646 76.3057 38.3474 76.6467 36.3646 78.7902C34.3818 80.9337 34.2842 84.068 36.1467 85.7909C38.0091 87.5137 41.1264 87.1727 43.1092 85.0292Z" fill="#0D308C"/>
<path d="M50.0262 92.4223C52.009 90.2788 52.1066 87.1445 50.2441 85.4216C48.3816 83.6988 45.2644 84.0398 43.2816 86.1833C41.2988 88.3268 41.2012 91.4611 43.0637 93.1839C44.9261 94.9068 48.0433 94.5658 50.0262 92.4223Z" fill="#0D308C"/>
<path d="M75.7198 67.1828C75.7188 67.1828 75.7182 67.1816 75.719 67.1809L110.633 31.7723C117.834 24.6532 117.124 12.071 111.007 5.61759C104.036 -1.73257 92.5103 -1.88111 85.3087 5.23798L40.4132 50.3039C37.0242 53.6544 36.5291 59.0679 39.5604 62.3524C42.6358 65.6864 47.9559 65.6259 51.3779 62.2424L52.7423 60.8945C57.4957 56.1961 65.0769 56.2676 69.7423 61.054L75.7206 67.1809C75.7213 67.1816 75.7208 67.1828 75.7198 67.1828Z" fill="#0D308C"/>
</svg>
