<?xml version="1.0" encoding="utf-8"?>
<!-- Generator: Adobe Illustrator 28.0.0, SVG Export Plug-In . SVG Version: 6.00 Build 0)  -->
<svg version="1.1" id="Layer_1" xmlns="http://www.w3.org/2000/svg" xmlns:xlink="http://www.w3.org/1999/xlink" x="0px" y="0px"
	 viewBox="0 0 623.6 130.4" style="enable-background:new 0 0 623.6 130.4;" xml:space="preserve">
<style type="text/css">
	.st0{fill:#30B7F9;}
	.st1{fill:url(#SVGID_1_);}
</style>
<g>
	<g>
		<g>
			<path class="st0" d="M148.7,90.8c-3.3,0-6.4-0.3-9.3-1c-2.9-0.7-5.5-1.9-7.8-3.7c-2.3-1.8-4.1-4.2-5.4-7.2c-1.3-3.1-2-6.9-2-11.6
				v-14c0-1.3,0-2.9,0-4.9s-0.1-4-0.2-5.9c-0.1-2-0.3-3.5-0.6-4.7l0.3-0.8h13.6v29.6c0,3.5,0.5,6.2,1.5,8.1s2.5,3.2,4.4,4
				c1.9,0.7,4.2,1.1,6.7,1.1c1.8,0,3.6-0.2,5.4-0.6c1.8-0.4,3.3-0.8,4.8-1.2l-2,3.1c-0.3-1-0.5-2.2-0.7-3.6s-0.2-3.1-0.2-5.1V53.2
				c0-1.3,0-2.9,0-4.9s-0.1-4-0.2-5.9c-0.1-2-0.3-3.5-0.6-4.7l0.2-0.8H170v32.9c0,1.3,0,2.9,0.1,5c0.1,2,0.2,4,0.3,6
				s0.3,3.5,0.6,4.7l-0.3,0.8c-1.8,0.8-4,1.6-6.6,2.2c-2.5,0.6-5.1,1.2-7.8,1.6C153.5,90.6,151,90.8,148.7,90.8z"/>
			<path class="st0" d="M204.9,90.8c-7.7,0-13.5-1.3-17.4-4c-3.9-2.6-5.9-6.9-5.9-12.8c0-3.8,0.9-6.9,2.7-9.4
				c1.8-2.4,4.4-4.3,7.7-5.5s7.1-1.8,11.4-1.8c2.6,0,5,0.2,6.9,0.6c2,0.4,3.8,0.9,5.4,1.3v8.7c-1.2-0.4-2.8-0.9-4.7-1.2
				c-1.9-0.4-3.8-0.5-5.5-0.5c-4,0-7,0.6-8.9,1.7c-1.9,1.2-2.9,3.1-2.9,5.9c0,2.6,1,4.5,2.9,5.7s4.6,1.7,8.2,1.7
				c2.2,0,4.2-0.2,6.2-0.6s3.8-1.1,5.3-2l-1.8,3.8c-0.2-0.8-0.5-1.5-0.6-2.3c-0.2-0.8-0.3-1.6-0.4-2.4c-0.1-0.8-0.2-1.8-0.2-2.8
				c0-1.1,0-2.4,0-3.9V57.8c0-3.3-0.5-5.8-1.5-7.4c-1-1.7-2.4-2.8-4.3-3.3c-1.9-0.5-4.3-0.8-7.1-0.8c-2.6,0-5.1,0.3-7.5,0.8
				s-4.3,1.2-5.8,1.9h-0.9V38.3c2.2-0.8,4.7-1.5,7.5-1.9s5.5-0.6,8.3-0.6c3.4,0,6.6,0.3,9.6,1c2.9,0.6,5.5,1.8,7.6,3.4
				c2.2,1.6,3.8,3.9,5,6.8c1.2,2.9,1.8,6.7,1.8,11.3v12.2c0,1.4,0,3,0,5.1c0,2,0.1,4,0.2,5.9c0.1,1.9,0.3,3.5,0.6,4.6l-0.3,0.8
				c-2.1,0.8-4.4,1.6-6.8,2.2c-2.4,0.6-4.9,1.1-7.4,1.4C209.5,90.6,207.1,90.8,204.9,90.8z"/>
			<path class="st0" d="M246.1,89.6V56.7c0-1.3,0-2.9-0.1-5c-0.1-2-0.1-4-0.2-6c-0.1-2-0.3-3.5-0.6-4.7l0.3-0.8
				c1.8-0.8,4-1.6,6.6-2.3c2.5-0.7,5.2-1.2,7.9-1.7c2.7-0.4,5.4-0.7,7.9-0.7c2.9,0,5.7,0.3,8.4,1c2.7,0.7,5.2,1.9,7.4,3.6
				c2.2,1.7,3.9,4.1,5.2,7.2c1.3,3.1,1.9,7,1.9,11.7v30.3h-12.9V59.8c0-3.5-0.5-6.3-1.4-8.2c-1-1.9-2.3-3.2-4-4
				c-1.7-0.7-3.6-1.1-5.9-1.1c-1.8,0-3.7,0.2-5.6,0.7s-3.5,1-4.9,1.5l1.9-3.4c0.3,1,0.6,2.2,0.7,3.8c0.2,1.5,0.3,3.3,0.3,5.3v35
				L246.1,89.6L246.1,89.6z M308.8,89.6V59.8c0-3.5-0.4-6.3-1.3-8.2s-2.2-3.2-4-4c-1.8-0.7-3.9-1.1-6.3-1.1c-1.5,0-3.1,0.2-4.7,0.5
				c-1.6,0.4-3.1,0.8-4.6,1.4l-7-8.7c2.8-1.2,5.7-2.2,8.8-3c3.1-0.8,6.2-1.2,9.3-1.2c3,0,5.8,0.3,8.5,1c2.7,0.6,5.1,1.8,7.3,3.5
				c2.2,1.7,3.8,4.1,5.1,7.1c1.2,3.1,1.8,7,1.8,11.9v30.3h-12.9L308.8,89.6L308.8,89.6z"/>
			<path class="st0" d="M352.3,90.8c-7.7,0-13.5-1.3-17.4-4C331,84.2,329,79.9,329,74c0-3.8,0.9-6.9,2.7-9.4
				c1.8-2.4,4.4-4.3,7.7-5.5c3.3-1.2,7.1-1.8,11.4-1.8c2.6,0,5,0.2,6.9,0.6c2,0.4,3.8,0.9,5.4,1.3v8.7c-1.2-0.4-2.8-0.9-4.7-1.2
				c-1.9-0.4-3.8-0.5-5.5-0.5c-4,0-7,0.6-8.9,1.7c-1.9,1.2-2.9,3.1-2.9,5.9c0,2.6,1,4.5,2.9,5.7s4.6,1.7,8.2,1.7
				c2.2,0,4.2-0.2,6.2-0.6s3.8-1.1,5.3-2l-1.8,3.8c-0.2-0.8-0.5-1.5-0.6-2.3c-0.2-0.8-0.3-1.6-0.4-2.4s-0.2-1.8-0.2-2.8
				c0-1.1,0-2.4,0-3.9V57.8c0-3.3-0.5-5.8-1.5-7.4c-1-1.7-2.4-2.8-4.3-3.3s-4.3-0.8-7.1-0.8c-2.6,0-5.1,0.3-7.5,0.8c0,0,0,0-0.1,0
				c-3.4,0.8-6.7-1.9-6.7-5.6v-3.3c2.2-0.8,4.7-1.5,7.5-1.9s5.5-0.6,8.3-0.6c3.4,0,6.6,0.3,9.6,1c2.9,0.6,5.5,1.8,7.6,3.4
				c2.2,1.6,3.8,3.9,5,6.8c1.2,2.9,1.8,6.7,1.8,11.3v12.2c0,1.4,0,3,0,5.1c0,2,0.1,4,0.2,5.9s0.3,3.5,0.6,4.6l-0.3,0.8
				c-2.1,0.8-4.4,1.6-6.8,2.2s-4.9,1.1-7.4,1.4C357,90.6,354.6,90.8,352.3,90.8z"/>
			<path class="st0" d="M398.8,93.5l-20.2-55.4v-1.2h13.8l13.5,42L398.8,93.5z M390.8,103.9l11-23.6l15-43.2h13.1v1.2l-24.3,60.2
				c-1.2,3.3-4.2,5.4-7.6,5.4C397.9,103.9,390.8,103.9,390.8,103.9z"/>
			<path class="st0" d="M445.8,89.6V32.7c0-1.3,0-2.9,0-4.9s-0.1-4-0.2-5.9c-0.1-2-2-5.5-2-5.5h15.2v73.2H445.8z"/>
			<path class="st0" d="M489.2,90.8c-7.7,0-13.5-1.3-17.4-4c-3.9-2.6-5.9-6.9-5.9-12.8c0-3.8,0.9-6.9,2.7-9.4
				c1.8-2.4,4.4-4.3,7.7-5.5c3.3-1.2,7.1-1.8,11.4-1.8c2.6,0,5,0.2,6.9,0.6c2,0.4,3.8,0.9,5.4,1.3v8.7c-1.2-0.4-2.8-0.9-4.7-1.2
				c-1.9-0.4-3.8-0.5-5.5-0.5c-4,0-7,0.6-8.9,1.7c-1.9,1.2-2.9,3.1-2.9,5.9c0,2.6,1,4.5,2.9,5.7s4.6,1.7,8.2,1.7
				c2.2,0,4.2-0.2,6.2-0.6s3.8-1.1,5.3-2l-1.8,3.8c-0.2-0.8-0.5-1.5-0.6-2.3c-0.2-0.8-0.3-1.6-0.4-2.4s-0.2-1.8-0.2-2.8
				c0-1.1,0-2.4,0-3.9V57.8c0-3.3-0.5-5.8-1.5-7.4c-1-1.7-2.4-2.8-4.3-3.3s-4.3-0.8-7.1-0.8c-2.6,0-5.1,0.3-7.5,0.8c0,0,0,0-0.1,0
				c-3.4,0.8-6.7-1.9-6.7-5.6v-3.3c2.2-0.8,4.7-1.5,7.5-1.9s5.5-0.6,8.3-0.6c3.4,0,6.6,0.3,9.6,1c2.9,0.6,5.5,1.8,7.6,3.4
				c2.2,1.6,3.8,3.9,5,6.8c1.2,2.9,1.8,6.7,1.8,11.3v12.2c0,1.4,0,3,0,5.1c0,2,0.1,4,0.2,5.9s0.3,3.5,0.6,4.6l-0.3,0.8
				c-2.1,0.8-4.4,1.6-6.8,2.2s-4.9,1.1-7.4,1.4C493.9,90.6,491.5,90.8,489.2,90.8z"/>
			<path class="st0" d="M521,89.6V56.7c0-1.3,0-2.9-0.1-5s-0.1-4-0.2-6c-0.1-2-0.3-3.5-0.6-4.7l0.3-0.8c1.8-0.8,4-1.6,6.6-2.3
				s5.2-1.2,7.9-1.7c2.7-0.4,5.3-0.7,7.8-0.7c3.1,0,6.1,0.3,9,1s5.4,1.9,7.7,3.6s4.1,4.1,5.4,7.2c1.3,3.1,1.9,7,1.9,11.7v30.3h-12.9
				V59.8c0-3.5-0.5-6.3-1.5-8.2s-2.4-3.2-4.2-4c-1.8-0.7-4-1.1-6.6-1.1c-1.8,0-3.7,0.2-5.6,0.7c-1.9,0.5-3.5,1-4.9,1.5l1.9-3.4
				c0.3,1,0.6,2.2,0.7,3.8c0.2,1.5,0.3,3.3,0.3,5.3v35L521,89.6L521,89.6L521,89.6z"/>
			<path class="st0" d="M578,89.6V32.7c0-1.3,0-2.9-0.1-5c-0.1-2-0.1-4-0.2-5.9c-0.1-1.9-2.4-5.4-2.4-5.4h15.6v26.9l-2.8-4.4
				c1.9-0.9,4-1.7,6.2-2.3s4.8-0.9,7.8-0.9s5.8,0.4,8.4,1.2c2.6,0.8,4.9,2.1,6.8,4c1.9,1.8,3.5,4.2,4.6,7.2s1.7,6.7,1.7,11.1v30.4
				h-12.9V59.9c0-3.4-0.5-6.1-1.5-8s-2.4-3.2-4.1-4c-1.8-0.7-3.8-1.1-6.1-1.1c-1.3,0-2.6,0.1-4,0.4c-1.4,0.3-2.7,0.5-3.9,0.9
				c-1.2,0.3-2.1,0.6-2.8,0.9l2.6-6.1v46.7H578z"/>
		</g>
	</g>
	<g>
		<path class="st0" d="M0,31.2c0,0,37.5,85.4,62.1,62.9C84.6,73.6,87.1-9.4,164.7,0.9c0,0-42.2,1.7-86.8,103.8
			C42.9,185,0,31.2,0,31.2z"/>
		
			<linearGradient id="SVGID_1_" gradientUnits="userSpaceOnUse" x1="22.6185" y1="-645.2822" x2="73.3764" y2="-604.6758" gradientTransform="matrix(1 0 0 -1 0 -580)">
			<stop  offset="2.035140e-02" style="stop-color:#EAB62A"/>
			<stop  offset="0.3045" style="stop-color:#FFF137"/>
			<stop  offset="0.5471" style="stop-color:#DFB314"/>
			<stop  offset="1" style="stop-color:#F0D713"/>
		</linearGradient>
		<path class="st1" d="M102.7,10.7C65,27.8,70.7,78,47.8,80.8C29,83.2,6.7,39.6,6.7,39.6s27.4,32.9,38.7,28.2
			C66.7,58.9,57.3,4.5,102.7,10.7z"/>
	</g>
	<g>
		<g>
			<path class="st0" d="M215.4,129.6v-20h8.4c1.4,0,2.4,0.2,3.3,0.6c0.9,0.3,1.6,0.9,2,1.7c0.5,0.7,0.7,1.6,0.7,2.6
				c0,1.1-0.2,2-0.8,2.8s-1.4,1.2-2.4,1.6v-0.6c0.9,0.2,1.6,0.6,2.3,1s1.1,1,1.5,1.7c0.3,0.7,0.6,1.5,0.6,2.4c0,1-0.1,1.9-0.5,2.6
				c-0.3,0.8-0.8,1.4-1.4,1.9c-0.6,0.6-1.4,0.9-2.2,1.1c-0.8,0.2-1.7,0.3-2.7,0.3L215.4,129.6L215.4,129.6z M219.9,117.7h3.4
				c0.5,0,0.9-0.1,1.3-0.2s0.6-0.3,0.8-0.7c0.2-0.3,0.2-0.7,0.2-1c0-0.6-0.2-1.1-0.6-1.5c-0.5-0.3-1-0.6-1.8-0.6h-3.3L219.9,117.7
				L219.9,117.7z M219.9,125.6h4.2c0.5,0,0.9-0.1,1.3-0.2c0.3-0.2,0.7-0.5,0.8-0.8c0.2-0.3,0.3-0.7,0.3-1.2s-0.1-0.8-0.3-1.1
				s-0.5-0.6-0.9-0.7c-0.3-0.1-0.8-0.2-1.4-0.2h-4.1v4.3L219.9,125.6L219.9,125.6z"/>
			<path class="st0" d="M239.4,129.9c-1.3,0-2.3-0.3-3.3-1c-0.9-0.7-1.7-1.6-2.3-2.8c-0.6-1.1-0.8-2.5-0.8-4.1s0.2-2.8,0.8-4.1
				c0.6-1.2,1.4-2.2,2.3-2.7c1-0.7,2-1,3.4-1c0.7,0,1.4,0.1,1.9,0.3c0.6,0.2,1,0.5,1.5,0.9c0.5,0.3,0.8,0.8,1.1,1.2s0.6,1,0.7,1.6
				l-0.9-0.1v-3.6h4.3v15.1h-4.4V126h1c-0.1,0.6-0.3,1-0.7,1.5c-0.3,0.5-0.7,0.9-1.3,1.2c-0.5,0.3-1,0.7-1.6,0.9
				C240.8,129.8,240.1,129.9,239.4,129.9z M240.7,126.1c0.7,0,1.3-0.1,1.7-0.5c0.5-0.3,0.9-0.8,1.1-1.4s0.5-1.2,0.5-2.2
				c0-0.8-0.1-1.5-0.5-2.2c-0.2-0.6-0.7-1-1.1-1.4c-0.5-0.3-1-0.5-1.7-0.5s-1.3,0.1-1.7,0.5c-0.5,0.3-0.9,0.8-1.1,1.4
				s-0.5,1.4-0.5,2.2c0,0.8,0.1,1.5,0.5,2.2c0.2,0.6,0.7,1,1.1,1.4C239.4,125.8,240,126.1,240.7,126.1z M240.6,112.8
				c-0.1-0.2-0.2-0.3-0.3-0.6s-0.1-0.5-0.1-0.7s0.1-0.5,0.2-0.7c0.1-0.2,0.3-0.5,0.7-0.7c0.2-0.2,0.5-0.3,0.6-0.5s0.2-0.2,0.2-0.5
				c0-0.2-0.1-0.3-0.2-0.3c-0.1-0.1-0.3-0.1-0.6-0.1s-0.8,0.1-1.1,0.2c-0.5,0.1-0.8,0.2-1.3,0.5L238,107c0.5-0.2,0.9-0.5,1.5-0.6
				c0.6-0.2,1.3-0.2,1.8-0.2c1,0,1.8,0.2,2.5,0.7c0.6,0.5,0.9,1.1,0.9,1.9c0,0.6-0.1,1-0.3,1.4c-0.2,0.3-0.6,0.6-0.8,0.8
				c-0.3,0.2-0.6,0.3-0.7,0.6c-0.2,0.2-0.3,0.3-0.3,0.6c0,0.1,0,0.1,0,0.2s0,0.1,0,0.2L240.6,112.8z"/>
			<path class="st0" d="M259,129.9c-1.5,0-2.8-0.3-4-1c-1.1-0.7-2-1.6-2.7-2.8c-0.7-1.1-1-2.5-1-4.1c0-1.5,0.3-2.8,1-4.1
				c0.7-1.1,1.6-2.2,2.7-2.8c1.1-0.7,2.5-1,4-1s2.8,0.3,4,1s2,1.6,2.7,2.8c0.7,1.1,1,2.5,1,4.1c0,1.5-0.3,2.8-1,4.1
				c-0.7,1.1-1.6,2.2-2.7,2.8C261.8,129.6,260.5,129.9,259,129.9z M259,125.9c0.7,0,1.3-0.2,1.7-0.6s0.9-0.8,1.3-1.4
				c0.3-0.6,0.5-1.2,0.5-2s-0.1-1.5-0.5-2s-0.7-1-1.3-1.4c-0.5-0.3-1.1-0.6-1.7-0.6c-0.7,0-1.3,0.2-1.7,0.6
				c-0.6,0.3-0.9,0.8-1.3,1.4c-0.3,0.6-0.5,1.2-0.5,2s0.1,1.5,0.5,2c0.3,0.6,0.7,1,1.3,1.4C257.7,125.8,258.3,125.9,259,125.9z"/>
			<path class="st0" d="M278.3,129.6v-21.1h4.3v9.1l-0.9,0.3c0.2-0.7,0.6-1.4,1-1.8c0.6-0.6,1.1-1,1.8-1.4c0.7-0.3,1.5-0.6,2.3-0.6
				c1.1,0,2,0.2,2.7,0.7c0.8,0.5,1.4,1.1,1.7,2c0.3,0.9,0.6,2,0.6,3.4v9.3h-4.4v-9c0-0.6-0.1-1.1-0.2-1.5c-0.1-0.3-0.5-0.7-0.8-0.9
				c-0.3-0.2-0.8-0.3-1.3-0.2c-0.3,0-0.7,0.1-1,0.2s-0.6,0.3-0.8,0.6s-0.5,0.5-0.6,0.8s-0.2,0.7-0.2,1v9.1h-2.2c-0.5,0-0.9,0-1.4,0
				S278.5,129.6,278.3,129.6z"/>
			<path class="st0" d="M301,129.9c-1.3,0-2.3-0.3-3.3-1c-0.9-0.7-1.7-1.6-2.3-2.8c-0.6-1.1-0.8-2.5-0.8-4.1s0.2-2.8,0.8-4.1
				c0.6-1.2,1.4-2.2,2.3-2.7c1-0.7,2-1,3.4-1c0.7,0,1.4,0.1,1.9,0.3c0.6,0.2,1,0.5,1.5,0.9c0.5,0.3,0.8,0.8,1.1,1.2
				c0.3,0.5,0.6,1,0.7,1.6l-0.9-0.1v-3.6h4.3v15.1h-4.4V126h1c-0.1,0.6-0.3,1-0.7,1.5c-0.3,0.5-0.7,0.9-1.3,1.2
				c-0.5,0.3-1,0.7-1.6,0.9C302.3,129.8,301.7,129.9,301,129.9z M304.3,112.8l-5.6-3.2l2-2.9l4.9,4.1L304.3,112.8z M302.2,126.1
				c0.7,0,1.3-0.1,1.7-0.5c0.5-0.3,0.9-0.8,1.1-1.4s0.5-1.2,0.5-2.2c0-0.8-0.1-1.5-0.5-2.2c-0.2-0.6-0.7-1-1.1-1.4
				c-0.5-0.3-1-0.5-1.7-0.5s-1.3,0.1-1.7,0.5c-0.5,0.3-0.9,0.8-1.1,1.4s-0.5,1.4-0.5,2.2c0,0.8,0.1,1.5,0.5,2.2
				c0.2,0.6,0.7,1,1.1,1.4C301,125.8,301.6,126.1,302.2,126.1z"/>
			<path class="st0" d="M313.6,129.6v-15.1h4.2l0.1,3.1l-0.9,0.3c0.2-0.7,0.6-1.4,1-1.8c0.6-0.6,1.1-1,1.8-1.4
				c0.7-0.3,1.5-0.6,2.3-0.6c1.1,0,2,0.2,2.7,0.7c0.8,0.5,1.4,1.1,1.7,2c0.3,0.9,0.6,2,0.6,3.4v9.3H323v-9c0-0.6-0.1-1.1-0.2-1.5
				c-0.1-0.3-0.5-0.7-0.8-0.9c-0.3-0.2-0.8-0.3-1.3-0.2c-0.3,0-0.7,0.1-1,0.2s-0.6,0.3-0.8,0.6s-0.5,0.5-0.6,0.8s-0.2,0.7-0.2,1v9.1
				h-2.2c-0.5,0-0.9,0-1.4,0C314.1,129.7,313.9,129.6,313.6,129.6z"/>
			<path class="st0" d="M331,129.6v-21.1h4.3v9.1l-0.9,0.3c0.2-0.7,0.6-1.4,1-1.8c0.6-0.6,1.1-1,1.8-1.4c0.7-0.3,1.5-0.6,2.3-0.6
				c1.1,0,2,0.2,2.7,0.7c0.8,0.5,1.4,1.1,1.7,2c0.3,0.9,0.6,2,0.6,3.4v9.3h-4.4v-9c0-0.6-0.1-1.1-0.2-1.5c-0.1-0.3-0.5-0.7-0.8-0.9
				c-0.3-0.2-0.8-0.3-1.3-0.2c-0.3,0-0.7,0.1-1,0.2s-0.6,0.3-0.8,0.6s-0.5,0.5-0.6,0.8s-0.2,0.7-0.2,1v9.1h-2c-0.5,0-0.9,0-1.4,0
				C331.4,129.7,331.3,129.6,331,129.6z"/>
			<path class="st0" d="M355.7,118.5v-4h9.8v4H355.7z M358.3,129.6v-19h4.3v19H358.3z"/>
			<path class="st0" d="M374.6,129.9c-1.5,0-2.8-0.3-4-1c-1.1-0.7-2-1.6-2.7-2.8c-0.7-1.2-1-2.5-1-4.1c0-1.5,0.3-2.8,1-4.1
				c0.7-1.1,1.6-2.2,2.7-2.8s2.5-1,4-1s2.8,0.3,4,1s2,1.6,2.7,2.8c0.7,1.1,1,2.5,1,4.1c0,1.5-0.3,2.8-1,4.1
				c-0.7,1.1-1.6,2.2-2.7,2.8C377.4,129.6,376.2,129.9,374.6,129.9z M370.9,112.5l-1.3-1.5l3.6-3.1h2.6l3.6,3.1l-1.4,1.5l-4-1.9h0.8
				L370.9,112.5z M374.6,125.9c0.7,0,1.3-0.2,1.7-0.6s0.9-0.8,1.3-1.4s0.5-1.2,0.5-2s-0.1-1.5-0.5-2c-0.3-0.6-0.7-1-1.3-1.4
				c-0.5-0.3-1.1-0.6-1.7-0.6c-0.7,0-1.3,0.2-1.7,0.6c-0.6,0.3-0.9,0.8-1.3,1.4s-0.5,1.2-0.5,2s0.1,1.5,0.5,2c0.3,0.6,0.7,1,1.3,1.4
				C373.3,125.8,374,125.9,374.6,125.9z M379.9,108.1l-1.7-1.2l2.6-4.6l2.7,2L379.9,108.1z"/>
			<path class="st0" d="M383.9,118.5v-4h9.8v4H383.9z M386.5,129.6v-19h4.3v19H386.5z"/>
			<path class="st0" d="M404.9,129.6v-15.1h4.2l0.1,3.1l-0.9,0.3c0.2-0.7,0.6-1.4,1-1.8c0.6-0.6,1.1-1,1.8-1.4
				c0.7-0.3,1.5-0.6,2.3-0.6c1.1,0,2,0.2,2.7,0.7c0.8,0.5,1.4,1.1,1.7,2c0.3,0.9,0.6,2,0.6,3.4v9.3H414v-9c0-0.6-0.1-1.1-0.2-1.5
				c-0.1-0.3-0.5-0.7-0.8-0.9c-0.3-0.2-0.8-0.3-1.3-0.2c-0.3,0-0.7,0.1-1,0.2s-0.6,0.3-0.8,0.6s-0.5,0.5-0.6,0.8s-0.2,0.7-0.2,1v9.1
				h-2c-0.5,0-0.9,0-1.4,0C405.3,129.7,405.1,129.6,404.9,129.6z"/>
			<path class="st0" d="M422.2,129.6v-21.1h4.3v9.1l-0.9,0.3c0.2-0.7,0.6-1.4,1-1.8c0.6-0.6,1.1-1,1.8-1.4c0.7-0.3,1.5-0.6,2.3-0.6
				c1.1,0,2,0.2,2.7,0.7c0.8,0.5,1.4,1.1,1.7,2c0.3,0.9,0.6,2,0.6,3.4v9.3h-4.4v-9c0-0.6-0.1-1.1-0.2-1.5c-0.1-0.3-0.5-0.7-0.8-0.9
				c-0.3-0.2-0.8-0.3-1.3-0.2c-0.3,0-0.7,0.1-1,0.2s-0.6,0.3-0.8,0.6s-0.5,0.5-0.6,0.8s-0.2,0.7-0.2,1v9.1h-2.2c-0.5,0-0.9,0-1.4,0
				C422.4,129.7,422.4,129.6,422.2,129.6z"/>
			<path class="st0" d="M444.9,129.9c-1.3,0-2.3-0.3-3.3-1c-0.9-0.7-1.7-1.6-2.3-2.8c-0.6-1.1-0.8-2.5-0.8-4.1s0.2-2.8,0.8-4.1
				c0.6-1.2,1.4-2.2,2.3-2.7c1-0.7,2-1,3.4-1c0.7,0,1.4,0.1,1.9,0.3c0.6,0.2,1,0.5,1.5,0.9c0.5,0.3,0.8,0.8,1.1,1.2
				c0.3,0.5,0.6,1,0.7,1.6l-0.9-0.1v-3.6h4.3v15.1h-4.4V126h1c-0.1,0.6-0.3,1-0.7,1.5c-0.3,0.5-0.7,0.9-1.3,1.2
				c-0.5,0.3-1,0.7-1.6,0.9C446.2,129.8,445.6,129.9,444.9,129.9z M443,112.5l-1.3-1.5l3.6-3.1h2.6l3.6,3.1l-1.4,1.5l-4-1.9h0.8
				L443,112.5z M446.1,126.1c0.7,0,1.3-0.1,1.7-0.5c0.5-0.3,0.9-0.8,1.1-1.4s0.5-1.2,0.5-2.2c0-0.8-0.1-1.5-0.5-2.2
				c-0.2-0.6-0.7-1-1.1-1.4c-0.5-0.3-1-0.5-1.7-0.5s-1.3,0.1-1.7,0.5c-0.5,0.3-0.9,0.8-1.1,1.4s-0.5,1.4-0.5,2.2
				c0,0.8,0.1,1.5,0.5,2.2c0.2,0.6,0.7,1,1.1,1.4C444.9,125.8,445.5,126.1,446.1,126.1z M451.9,108.1l-1.7-1.2l2.6-4.6l2.7,2
				L451.9,108.1z"/>
			<path class="st0" d="M456.2,118.5v-4h9.8v4H456.2z M458.8,129.6v-19h4.3v19H458.8z"/>
		</g>
	</g>
</g>
</svg>
